<svg xmlns="http://www.w3.org/2000/svg" viewBox="0 0 115.51 34.02">
  <defs>
    <style>
      .cls-1 {
        opacity: 0.5;
      }

      .cls-2 {
        fill: #231815;
      }

      .cls-3 {
        opacity: 0.8;
      }
    </style>
  </defs>
  <g class="cls-1">
    <rect class="cls-2" width="10.1" height="22.06" />
    <rect class="cls-2" x="23.92" y="11.96" width="10.1" height="22.06" />
    <rect class="cls-2" x="11.96" y="23.92" width="10.1" height="10.1" />
    <rect class="cls-2" x="11.96" width="10.1" height="10.1" />
    <circle class="cls-2" cx="5.05" cy="28.97" r="5.05" />
    <circle class="cls-2" cx="17.01" cy="17.01" r="5.05" />
    <circle class="cls-2" cx="28.97" cy="5.05" r="5.05" />
  </g>
  <g class="cls-3">
    <path class="cls-2"
      d="M50.43,12.14c-.2-.16-.49-.44-.88-.83a5.34,5.34,0,0,1-1-1.44,4.3,4.3,0,0,1-.74,1.33,7.64,7.64,0,0,1-1.15,1.23l-1.15-1a5.71,5.71,0,0,0,1.56-1.93,5.86,5.86,0,0,0,.64-2.74V4.38h1.7v2.4a5.17,5.17,0,0,0,.53,2.49,6.48,6.48,0,0,0,1.51,1.82ZM52,13.64V8.5H50.42V6.93H52V3.79H53.5v9.85Zm2.27.47V3.56h1.55V14.11Z" />
    <path class="cls-2"
      d="M62.59,10.72v3.39H61V10.72H56.51V9.33H67.07v1.39Zm-4.8-2.45V3.94h8V8.27Zm6.4-3h-4.8V6.9h4.8Z" />
    <path class="cls-2"
      d="M73,12.61c-1,.06-2.14.09-3.34.09H67.76V11.29h3V10.5a3.87,3.87,0,0,1-1.47-.6,1.29,1.29,0,0,1-.62-1.08,1.41,1.41,0,0,1,.84-1.25,4.06,4.06,0,0,1,2-.48,4,4,0,0,1,2.06.48,1.43,1.43,0,0,1,.82,1.25,1.26,1.26,0,0,1-.58,1.06,3.79,3.79,0,0,1-1.37.59v.79c.33,0,.8,0,1.41-.07l1.46-.13v1.36C74.82,12.49,74.05,12.55,73,12.61ZM68.29,6.82V5.55h6.48V6.82ZM69.76,5V3.78h3.51V5Zm.88,3.37c-.27.1-.4.25-.4.44s.13.35.4.45a2.48,2.48,0,0,0,.89.15,2.55,2.55,0,0,0,.91-.15c.27-.11.41-.26.41-.45s-.14-.34-.4-.44a2.36,2.36,0,0,0-.92-.16A2.28,2.28,0,0,0,70.64,8.38Zm5.06,5.73V3.56h1.6V14.11Z" />
    <path class="cls-2"
      d="M82.44,9.33a8,8,0,0,1-2.79,3.14l-1.2-.85a6.79,6.79,0,0,0,2.32-2.41,6,6,0,0,0,.9-3.07h-2.5V4.77h4.24A10.09,10.09,0,0,1,82.44,9.33Zm2.18,4.31V10.36H83.24V9h1.38V7.5H83.44V6.11h1.18V3.81h1.53v9.83Zm2.24.47V3.56h1.55V14.11Z" />
    <path class="cls-2"
      d="M99.45,9.42a6.05,6.05,0,0,1-1.19-.57,3.6,3.6,0,0,1-1.17-1.08A3.52,3.52,0,0,1,96,8.9a5.29,5.29,0,0,1-1.52.81l-1-1.26a6.23,6.23,0,0,0,1.83-1,2,2,0,0,0,1-1.7v-.3h-2V4.11h5.66V5.49h-2v.3a1.81,1.81,0,0,0,.92,1.56,10,10,0,0,0,1.53.82Zm3,1.11a1.8,1.8,0,0,1,1.1,1.54,1.79,1.79,0,0,1-1.1,1.53,7.95,7.95,0,0,1-6.13,0,1.78,1.78,0,0,1-1.11-1.54,1.79,1.79,0,0,1,1.11-1.54,6.3,6.3,0,0,1,3.06-.62A6.37,6.37,0,0,1,102.44,10.53Zm-1.33.9a4.65,4.65,0,0,0-1.73-.27,5.09,5.09,0,0,0-1.72.25c-.45.17-.67.38-.67.64s.22.47.67.66a4.37,4.37,0,0,0,1.72.29,4.44,4.44,0,0,0,1.73-.28q.66-.27.66-.63T101.11,11.43Zm.69-1.61V7.25H100V5.91h1.85V3.56h1.6V9.82Z" />
    <path class="cls-2"
      d="M105,9.39V4.07h5.47V9.39Zm1.16,4.48V10.35h1.7v2.14h6.38v1.38Zm2.74-8.44h-2.3V8h2.3Zm3.5,5.66V3.56H114v7.53Z" />
  </g>
  <g class="cls-3">
    <path class="cls-2"
      d="M45.74,24.35v-1h1.33V21.86l-.64,0h-.56c0-.17-.06-.38-.09-.64s0-.29,0-.34c.86,0,2-.1,3.48-.22l.17,1h-.21a8.89,8.89,0,0,1-1.08.09v1.54h.95v1H48.1v.95l.26.17c.55.4,1,.72,1.21,1l-.52.86-.95-.86V30.5h-1V26.59A9.82,9.82,0,0,1,46,28.65a8.91,8.91,0,0,0-.43-1.16,10.56,10.56,0,0,0,1.54-3v-.09Zm10-.21a2.49,2.49,0,0,0-.3-.26l-.34-.21V26.8h-1.2v2.11c0,.29.12.41.38.39h.26c.34,0,.53-.12.56-.43a11.81,11.81,0,0,0,.13-1.25l.21.09a3.16,3.16,0,0,0,.65.25,7.26,7.26,0,0,1-.17,1.34,1.14,1.14,0,0,1-1.29,1H54c-.77,0-1.16-.34-1.16-1V26.8h-.9a5,5,0,0,1,0,.6,3.72,3.72,0,0,1-2.41,3.18c-.23-.23-.47-.5-.73-.81,1.35-.57,2-1.36,2.06-2.37a1.8,1.8,0,0,0,.09-.6h-1v-3l-.17.17-.22.17c-.17-.4-.33-.73-.47-1a8.16,8.16,0,0,0,2.28-2.79l.94.52a11.54,11.54,0,0,1-1.72,2.32h4a7.74,7.74,0,0,1-1.8-2.5l.9-.47A6.81,6.81,0,0,0,56.14,23,6.78,6.78,0,0,0,55.75,24.14Zm-4.81,0v1.68h3.14V24.18Z" />
    <path class="cls-2"
      d="M57.18,29l-.35-1.29A8.32,8.32,0,0,0,58.59,25H57V24.1h2c-.15-.15-.4-.39-.78-.73s-.53-.49-.64-.61l.64-.6.91.78,1.07-1.25h-3v-1h4.16v1L59.8,23.58l.17.13-.39.39h1.76v.64a10.65,10.65,0,0,0,2.11-.69,9.25,9.25,0,0,1-1-1.11c-.23.25-.45.5-.68.73l-.6-.82a9.33,9.33,0,0,0,2-2.58l1.12.13a7.28,7.28,0,0,1-.47.82h3v1a6,6,0,0,1-1.5,1.8,7.15,7.15,0,0,0,2,.6,7.05,7.05,0,0,0-.48,1,9.17,9.17,0,0,1-2.49-.94,14.85,14.85,0,0,1-2.58,1,6.92,6.92,0,0,0-.43-.9V25L61,26.89a3.19,3.19,0,0,0-.73-.13l.3-1.72h-.77v4.13c0,.8-.37,1.21-1.2,1.24a8.82,8.82,0,0,1-1.12.05q0-.18-.09-.48c0-.25-.1-.44-.13-.56h1q.64,0,.6-.51V26.33A9,9,0,0,1,57.18,29Zm6.57,1.42c-.06-.34-.13-.7-.21-1.07a6.49,6.49,0,0,1,.68,0h.6a.61.61,0,0,0,.78-.65v-.6c0-.37,0-.64,0-.81H64c-.17,1.31-1.09,2.4-2.75,3.26a7.83,7.83,0,0,1-.73-.9c1.4-.57,2.19-1.36,2.36-2.36H61.47v-1h1.59v-.73h1.12a5.64,5.64,0,0,0,0,.73H66.8c0,.48-.07,1.19-.13,2.1a4,4,0,0,0,0,.48,1.29,1.29,0,0,1-1.46,1.46C65,30.35,64.49,30.37,63.75,30.37Zm1.93-8.21H63.19a4.33,4.33,0,0,0,1.2,1.38A6,6,0,0,0,65.68,22.16Z" />
    <path class="cls-2"
      d="M78.11,23.37a15.36,15.36,0,0,1-2.54-.95v.39H71v-.3l-.65.25c-.77.32-1.41.56-1.93.73l-.43-1A14.06,14.06,0,0,0,73,20.23l1.46,0-.3.26a13.2,13.2,0,0,0,4.43,1.85l-.13.26Zm-9.11,3v-3h8.59v3Zm.6,4.17V26.93H77v3.61H75.87V30.2H70.72v.34ZM70,24.1v1.54h2.71V24.1Zm1.55,1.46-.48-.43-.51-.52.6-.47.39.3.64.6Zm-.86,2.1v.65h5.15v-.65Zm0,1.25v.56h5.15v-.56Zm2.66-7.78c-.08.06-.23.14-.43.26a11.63,11.63,0,0,1-1.29.77H75A16,16,0,0,1,73.38,21.13Zm3.14,3H73.81v1.54h2.71Zm-1.59,1.46L74.37,25c.34-.28.67-.59,1-.9l.64.47A10.93,10.93,0,0,1,74.93,25.56Z" />
    <path class="cls-2"
      d="M79.32,22.46v-1h1.84a7.5,7.5,0,0,0-.38-1.08l1.16-.17a1.51,1.51,0,0,1,.08.3,10,10,0,0,0,.35.95H84v1Zm.34,1.68v-.9h4v.9Zm0,1.67v-.9h4v.9Zm.09,4.65V26.59h3.82v3.82h-1V29.9H80.73v.56Zm1-2.93V29h1.81V27.53Zm3.36-2.62V23.84h2.23V20.27h1.16v3.57h2.23v1.07H87.48V30.5H86.32V24.91Z" />
    <path class="cls-2"
      d="M94.36,25.94V25h9.29v1h-4V27.1h3.56V28H99.61v1.24h4.51v.9H93.89v-.9H98.4V28H94.84V27.1H98.4V25.94Zm.69-1.89V20.79h7.87v3.26Zm1.21-2.32v1.38h5.5V21.73Z" />
    <path class="cls-2"
      d="M105.67,30.5l-.56-.86a1,1,0,0,0,.3-.86V20.7h4.77v3.4h-1.42c0,.51,0,1,0,1.41h1.42v1h-1.42a8.82,8.82,0,0,0,.38,2.32c.06.17.15.26.26.26a.26.26,0,0,0,.22-.3,6.86,6.86,0,0,0,.17-1.29,4.31,4.31,0,0,0,.73.26,15.16,15.16,0,0,1-.22,1.55l0,.08a8,8,0,0,0,1.89-1.67,10.09,10.09,0,0,1-1-3A3.62,3.62,0,0,0,111,25l-.43.69a10,10,0,0,0-.56-1,15.59,15.59,0,0,0,1.89-4.51l1.07.17-.25.82c-.12.34-.21.61-.26.81h3v1.08h-.74a10.92,10.92,0,0,1-1.2,4.55,7,7,0,0,0,2,1.72,11.29,11.29,0,0,0-.69,1.08,17.82,17.82,0,0,1-2-1.81,11,11,0,0,1-2.06,1.89c-.11-.14-.33-.37-.64-.69a1,1,0,0,1-.73.43c-.55-.05-.94-.44-1.16-1.16a11.56,11.56,0,0,1-.39-2.62h-1.38v2.41l.13-.09a12.25,12.25,0,0,0,1-.68c0,.11,0,.3.05.55a2.49,2.49,0,0,0,0,.56,7.93,7.93,0,0,0-1.33.73l-.17.13Zm.77-8.81v1.42h2.71V21.69Zm1.34,3.82V24.1h-1.34v1.41Zm5,1.12a9.21,9.21,0,0,0,.86-3.52h-1.72l0,.13A10.49,10.49,0,0,0,112.8,26.63Z" />
  </g>
</svg>
